<svg id="Layer_1" data-name="Layer 1" xmlns="http://www.w3.org/2000/svg" viewBox="0 0 250 125.61"><defs><style>.cls-1{fill:#fff;}</style></defs><title>bac-main-logo-white</title><path class="cls-1" d="M79,89.4h9.49V31H79v-1.2H94c.86,0,1.73,0,2.61,0s1.78-.07,2.69-.13,1.8,0,2.65,0,1.68,0,2.48,0A29.74,29.74,0,0,1,114.64,31,18.68,18.68,0,0,1,121,34.66a11.85,11.85,0,0,1,3.16,4.7,14.42,14.42,0,0,1,.86,4.58,11.13,11.13,0,0,1-1.25,5.21,13.71,13.71,0,0,1-3.33,4.19,17.53,17.53,0,0,1-4.83,2.9,21.37,21.37,0,0,1-5.72,1.45v.17a27.45,27.45,0,0,1,6.28,1.33,20.76,20.76,0,0,1,5.81,3,15.25,15.25,0,0,1,4.23,4.74,12.82,12.82,0,0,1,1.62,6.5,16.87,16.87,0,0,1-1.45,7A14.81,14.81,0,0,1,122,86a21.59,21.59,0,0,1-7.35,3.63,36.17,36.17,0,0,1-10.35,1.33c-.8,0-1.57,0-2.35,0s-1.57-.07-2.43-.12-1.74-.1-2.65-.13-1.88,0-2.91,0H79ZM97,57.35h7.86a14.87,14.87,0,0,0,4.36-.6,7.6,7.6,0,0,0,3.38-2.09,10,10,0,0,0,2.17-4.06,22.74,22.74,0,0,0,.77-6.49A18.43,18.43,0,0,0,114.42,37a9.65,9.65,0,0,0-3-4.06,9.75,9.75,0,0,0-4.1-1.79,23.78,23.78,0,0,0-4.49-.43c-1,0-2.06,0-3.12,0A21,21,0,0,0,97,31ZM97,89.4l2.26.21a35.5,35.5,0,0,0,3.55.13,26.48,26.48,0,0,0,6.88-.77,9.85,9.85,0,0,0,4.7-2.69,11.64,11.64,0,0,0,2.69-5.08,31.06,31.06,0,0,0,.86-8q0-6.84-2.91-10.77t-8.63-3.93H97Z"/><path class="cls-1" d="M131.81,89.4h7.52l23.08-61.19h2.05L187.7,89.4h7.61v1.2H169V89.4h9.48l-9-23.76H149.67l-9,23.76h9.49v1.2H131.81Zm27.77-49.82-9.39,24.87H169Z"/><path class="cls-1" d="M250,90.6h-1.28a7.76,7.76,0,0,0-1.37-1.24A4.11,4.11,0,0,0,245,88.8a9.41,9.41,0,0,0-2.78.47l-3.42,1.07a43.08,43.08,0,0,1-4.31,1.07,27.94,27.94,0,0,1-5.3.47,28.82,28.82,0,0,1-10.47-2,28.34,28.34,0,0,1-9.61-6.41,37,37,0,0,1-7-9.91,29.63,29.63,0,0,1-2.82-13.25A33.15,33.15,0,0,1,208,37.87a30.86,30.86,0,0,1,9.65-7,28.21,28.21,0,0,1,12.14-2.61,19.55,19.55,0,0,1,4.7.51,29,29,0,0,1,3.67,1.16c1.09.43,2.08.81,3,1.15a7.58,7.58,0,0,0,2.65.51A4.1,4.1,0,0,0,246.2,31a9.11,9.11,0,0,0,1.32-1.24h1.28V46.84h-.93a53.14,53.14,0,0,0-2-6.41,18.45,18.45,0,0,0-3.33-5.6,16,16,0,0,0-5.43-3.93A19.86,19.86,0,0,0,229,29.41a19.45,19.45,0,0,0-7.78,1.41,16.36,16.36,0,0,0-5.46,3.76,18,18,0,0,0-3.55,5.47,33.74,33.74,0,0,0-2,6.58,51.09,51.09,0,0,0-.9,7c-.14,2.36-.21,4.6-.21,6.7a63.52,63.52,0,0,0,1.45,14.87,25.22,25.22,0,0,0,4.06,9.32,13.93,13.93,0,0,0,6.28,4.78A22.91,22.91,0,0,0,229,90.68a22.21,22.21,0,0,0,9.23-1.62,15.61,15.61,0,0,0,5.64-4.23,18.54,18.54,0,0,0,3.24-5.9c.75-2.19,1.4-4.37,2-6.54H250Z"/><polygon class="cls-1" points="245 25.61 245 5 5 5 5 120.61 245 120.61 245 99.51 78.4 99.51 78.4 94.51 250 94.51 250 125.61 0 125.61 0 0 250 0 250 25.61 245 25.61"/></svg>